<?xml version="1.0" standalone="no"?>
<!DOCTYPE svg PUBLIC "-//W3C//DTD SVG 20010904//EN"
 "http://www.w3.org/TR/2001/REC-SVG-20010904/DTD/svg10.dtd">
<svg version="1.0" xmlns="http://www.w3.org/2000/svg"
 width="80.000000pt" height="80.000000pt" viewBox="0 0 80.000000 80.000000"
 preserveAspectRatio="xMidYMid meet">
<metadata>
Created by potrace 1.16, written by Peter Selinger 2001-2019
</metadata>
<g transform="translate(0.000000,80.000000) scale(0.100000,-0.100000)"
fill="#000000" stroke="none">
<path d="M222 663 c-70 -34 -122 -110 -122 -175 0 -26 -6 -36 -30 -50 -24 -14
-30 -24 -30 -52 0 -23 6 -38 17 -45 13 -7 17 -21 15 -59 -1 -34 3 -54 13 -62
8 -7 15 -25 15 -40 0 -58 10 -60 302 -60 244 0 266 1 281 18 10 10 17 30 17
44 0 14 7 31 15 38 10 8 14 28 13 62 -2 38 2 52 15 59 11 7 17 22 17 45 0 28
-6 38 -29 52 -24 13 -30 24 -33 64 -6 53 -37 101 -95 145 -36 28 -39 28 -192
31 -130 2 -162 -1 -189 -15z m339 -28 c19 -10 42 -25 53 -34 27 -24 56 -86 56
-121 l0 -30 -270 0 -270 0 0 30 c0 79 67 151 160 171 61 14 232 3 271 -16z
m134 -215 c26 -10 43 -35 31 -47 -3 -4 -22 1 -42 10 -33 16 -37 16 -65 0 -24
-14 -33 -15 -49 -5 -25 15 -65 16 -88 1 -14 -9 -26 -8 -50 5 -30 15 -34 15
-63 0 -27 -13 -36 -14 -58 -3 -14 7 -28 14 -31 15 -3 2 -21 -5 -39 -13 -30
-15 -35 -15 -61 1 -27 15 -31 15 -64 -1 -20 -9 -39 -13 -43 -9 -11 11 11 40
38 47 39 11 555 10 584 -1z m-520 -70 c9 -14 61 -13 85 2 15 10 22 10 32 0 16
-16 63 -15 88 0 16 10 24 10 40 0 25 -15 65 -15 90 0 15 10 22 10 32 0 14 -14
74 -16 83 -2 9 14 37 12 60 -6 30 -23 4 -34 -82 -34 -42 0 -73 -4 -73 -10 0
-5 6 -10 13 -10 6 -1 -15 -11 -48 -24 -33 -13 -84 -35 -112 -49 l-51 -26 -37
44 c-44 54 -81 75 -132 75 -21 0 -45 5 -53 10 -13 8 -12 11 5 24 23 18 51 20
60 6z m125 -170 l25 -31 55 30 c53 29 60 31 178 31 123 0 123 0 117 -22 -4
-13 -11 -27 -17 -33 -12 -14 -504 -14 -516 0 -6 6 -13 20 -17 33 -6 21 -5 22
72 22 75 0 79 -1 103 -30z"/>
</g>
</svg>
